<?xml version="1.0" encoding="utf-8"?>
<svg version="1.1" id="Logo" xmlns="http://www.w3.org/2000/svg" viewBox="0 0 142 103.5" fill="#fff">
<g>
	<path d="M6.9,59.4l3.8-38.7h19.1l-1.1,10.6h-5L22,48.9h7.2l3.5-35.2l-3.5,0l1.1-10.5h17.4l-5.6,56.2H6.9z"/>
	<path d="M44.4,59.4l3.9-38.6l14,0l-2.8,28.1h7.1l2.8-28.2l13.3,0.1l-3.2,38.6H44.4z"/>
	<path d="M120.5,20.8l-1.1,10.6l-5.4,15.2l-14,0l5.4-15.3h-7.1l-1.8,17.5h21.1l-1.1,10.6l-35.1,0l3.2-38.6H120.5z"/>
	<path d="M119.1,59.4l4.5-45.7h-3.2l1-10.4h17.7l-5.7,56.1L119.1,59.4z"/>
	<path d="M41.9,61.6l-1.1,10.7l-21.1,0l-0.4,3.6h21.1L38,100.3l-35.1,0l1-10.4h21l0.4-3.6l-21-0.1l2.5-24.6H41.9z"/>
	<path d="M79.3,61.7l-2.7,38.6l-36.2,0l3.8-38.6H79.3z M64.6,72.2h-7l-1.8,17.5l7,0L64.6,72.2z"/>
	<path d="M109.7,100.3l-3.7-15l-6.4,15h-21l2.8-38.6l14.4,0l-1.6,20.1l7.2-20.2h11.4l4,20.3l1.9-20.3l14.5,0.1l-3.2,38.6H109.7z"/>
</g>
</svg>
